HIERARCHY
ROOT SimulationBone
{
	OFFSET 0.000000 0.000000 0.000000
	CHANNELS 6 Xposition Yposition Zposition Zrotation Yrotation Xrotation 
	JOINT Hips
	{
		OFFSET 0.000000 0.000000 0.000000
		CHANNELS 6 Xposition Yposition Zposition Zrotation Yrotation Xrotation 
		JOINT LeftUpLeg
		{
			OFFSET 0.103462 1.857827 10.548504
			CHANNELS 3 Zrotation Yrotation Xrotation
			JOINT LeftLeg
			{
				OFFSET 43.500000 -0.000031 0.000000
				CHANNELS 3 Zrotation Yrotation Xrotation
				JOINT LeftFoot
				{
					OFFSET 42.372192 0.000015 0.000000
					CHANNELS 3 Zrotation Yrotation Xrotation
					JOINT LeftToe
					{
						OFFSET 17.300001 0.000000 -0.000009
						CHANNELS 3 Zrotation Yrotation Xrotation
						End Site
						{
							OFFSET 0.000000 0.000000 0.000000
						}
					}
				}
			}
		}
		JOINT RightUpLeg
		{
			OFFSET 0.103456 1.857828 -10.548508
			CHANNELS 3 Zrotation Yrotation Xrotation
			JOINT RightLeg
			{
				OFFSET 43.500046 -0.000015 0.000008
				CHANNELS 3 Zrotation Yrotation Xrotation
				JOINT RightFoot
				{
					OFFSET 42.372261 -0.000015 0.000002
					CHANNELS 3 Zrotation Yrotation Xrotation
					JOINT RightToe
					{
						OFFSET 17.299999 -0.000003 0.000011
						CHANNELS 3 Zrotation Yrotation Xrotation
						End Site
						{
							OFFSET 0.000000 0.000000 0.000000
						}
					}
				}
			}
		}
		JOINT Spine
		{
			OFFSET 6.901966 -2.603728 -0.000009
			CHANNELS 3 Zrotation Yrotation Xrotation
			JOINT Spine1
			{
				OFFSET 12.588099 0.000000 0.000013
				CHANNELS 3 Zrotation Yrotation Xrotation
				JOINT Spine2
				{
					OFFSET 12.343203 0.000005 -0.000004
					CHANNELS 3 Zrotation Yrotation Xrotation
					JOINT Neck
					{
						OFFSET 25.832897 -0.000004 0.000004
						CHANNELS 3 Zrotation Yrotation Xrotation
						JOINT Head
						{
							OFFSET 11.766615 0.000003 -0.000003
							CHANNELS 3 Zrotation Yrotation Xrotation
							End Site
							{
								OFFSET 0.000000 0.000000 0.000000
							}
						}
					}
					JOINT LeftShoulder
					{
						OFFSET 19.745903 -1.480370 6.000102
						CHANNELS 3 Zrotation Yrotation Xrotation
						JOINT LeftArm
						{
							OFFSET 11.284127 -0.000006 -0.000019
							CHANNELS 3 Zrotation Yrotation Xrotation
							JOINT LeftForeArm
							{
								OFFSET 33.000042 0.000001 0.000035
								CHANNELS 3 Zrotation Yrotation Xrotation
								JOINT LeftHand
								{
									OFFSET 25.200005 0.000015 0.000003
									CHANNELS 3 Zrotation Yrotation Xrotation
									End Site
									{
										OFFSET 0.000000 0.000000 0.000000
									}
								}
							}
						}
					}
					JOINT RightShoulder
					{
						OFFSET 19.746101 -1.480375 -6.000084
						CHANNELS 3 Zrotation Yrotation Xrotation
						JOINT RightArm
						{
							OFFSET 11.284132 -0.000016 -0.000012
							CHANNELS 3 Zrotation Yrotation Xrotation
							JOINT RightForeArm
							{
								OFFSET 33.000092 0.000018 0.000010
								CHANNELS 3 Zrotation Yrotation Xrotation
								JOINT RightHand
								{
									OFFSET 25.199774 0.000137 0.000425
									CHANNELS 3 Zrotation Yrotation Xrotation
									End Site
									{
										OFFSET 0.000000 0.000000 0.000000
									}
								}
							}
						}
					}
				}
			}
		}
	}
}
MOTION
Frames: 7
Frame Time: 0.016667
330.019917 0.000000 536.421870 180.000000 -67.841958 180.000000 -6.173312 83.280533 -0.238775 90.655047 -1.029224 -175.475053 136.590403 4.150797 -163.564946 -44.624553 -1.069286 10.392026 71.608108 -10.828996 -9.964763 21.454548 0.003095 -0.000000 155.052842 -5.054433 170.432013 -56.068052 3.957403 -9.744244 91.737603 5.332210 -7.852463 21.454558 -0.003112 -0.000019 13.256681 0.430566 1.223395 16.508261 0.681889 2.495690 16.190467 0.697080 2.491551 14.385096 -3.088703 -28.721831 -25.654892 21.289135 -39.967179 162.955925 -80.562167 15.708923 3.377750 58.546427 50.389727 -48.171751 -15.860741 1.749594 1.422212 -9.438605 32.140411 -174.401794 73.313302 7.150412 -17.080483 -60.353325 1.283226 -65.850381 19.889188 -2.698251 -3.728377 19.559254 -27.542787 
329.909870 0.000000 537.494008 180.000000 -64.767697 180.000000 -5.869369 83.156120 -0.166463 91.218719 -0.998621 -176.051514 138.031032 4.359298 -160.262616 -39.664004 -1.550766 11.770351 70.072945 -12.085353 -10.160021 21.454548 0.003095 0.000001 156.325504 -5.683707 168.867247 -56.314564 3.730603 -10.778179 92.083892 5.901192 -8.884030 21.454560 -0.003105 -0.000019 13.273901 0.275421 1.421897 16.539359 0.344446 2.868466 16.221692 0.361893 2.866353 14.712496 -3.389220 -29.278971 -25.292067 21.687109 -40.637927 165.949416 -80.364108 12.683521 6.018069 59.314290 52.908542 -48.016844 -15.534430 1.723014 0.956619 -8.484685 33.704653 -174.598213 73.413909 6.949792 -17.617190 -60.278159 0.890960 -65.476808 19.972323 -2.688860 -3.835929 19.794459 -27.413986 
329.804222 0.000000 538.582322 180.000000 -61.654073 180.000000 -5.548935 83.041186 -0.127000 91.816493 -1.089250 -176.918819 139.675161 4.382355 -157.146716 -35.221994 -1.520541 13.165082 68.979269 -13.297782 -10.283640 21.454550 0.003094 0.000001 157.672948 -6.083057 166.847327 -56.507245 3.767776 -11.822045 92.507972 6.483747 -9.895982 21.454559 -0.003097 -0.000018 13.293512 0.071190 1.653529 16.572798 -0.095534 3.300046 16.255282 -0.075480 3.300574 15.191096 -3.677994 -29.989289 -24.952668 22.133358 -41.489889 168.882238 -80.167164 9.716911 8.570659 60.131918 55.501768 -47.739998 -15.267291 1.696673 0.590876 -7.841100 35.030560 -174.743552 73.584041 6.802228 -18.263424 -60.151265 0.390556 -65.029385 20.084003 -2.678372 -3.771873 19.915190 -27.255523 
329.699587 0.000000 539.685690 180.000000 -58.510540 180.000000 -5.238652 82.938843 -0.117909 92.423302 -1.293141 -178.063051 141.352663 4.277496 -153.987351 -31.747849 -1.526372 14.169113 68.777750 -13.921560 -9.947623 21.454553 0.003092 0.000000 159.012364 -6.238905 164.643841 -56.671226 3.845015 -12.958552 92.975888 7.145719 -10.860996 21.454558 -0.003094 -0.000018 13.307238 -0.174603 1.899500 16.591658 -0.620144 3.754160 16.274297 -0.597346 3.757839 15.712353 -4.030032 -30.734539 -24.533472 22.580197 -42.352380 171.866601 -79.927400 6.696664 11.049158 60.940544 58.162931 -47.376360 -15.030803 1.669829 0.325445 -7.569076 35.995478 -174.889330 73.833993 6.654989 -19.066498 -60.000082 -0.120318 -64.532623 20.224443 -2.668223 -3.692226 19.769971 -27.119892 
329.594143 0.000000 540.800890 180.000000 -55.348155 180.000000 -4.953890 82.839651 -0.126141 93.015758 -1.549314 -179.420563 142.896340 4.071190 -150.645102 -29.619395 -2.079411 14.386578 69.656839 -13.594807 -8.960908 21.454554 0.003092 -0.000000 160.256298 -6.210081 162.586959 -56.845988 3.718190 -14.254386 93.437292 7.937287 -11.768573 21.454557 -0.003100 -0.000018 13.304983 -0.439977 2.135561 16.576320 -1.181740 4.185968 16.259092 -1.156331 4.193024 16.187306 -4.516925 -31.396078 -23.953696 22.985027 -43.061100 174.885694 -79.590811 3.640585 13.509885 61.669149 60.834463 -46.992677 -14.774727 1.641162 0.151884 -7.592699 36.621979 -175.151922 74.157903 6.388814 -20.049797 -59.837022 -0.551525 -64.004387 20.387813 -2.658658 -3.749534 19.283990 -27.043048 
329.486961 0.000000 541.924347 180.000000 -52.179363 180.000000 -4.643185 82.702591 -0.120630 93.602832 -1.665429 179.233473 144.274536 3.700605 -148.077325 -28.754365 -2.921205 14.239052 70.762869 -13.119812 -8.303480 21.454555 0.003092 -0.000000 161.449935 -6.201294 160.770550 -57.067575 3.441004 -15.553002 93.858498 8.728027 -12.714737 21.454557 -0.003106 -0.000018 13.278853 -0.668537 2.335048 16.513389 -1.663882 4.550856 16.196259 -1.636264 4.560808 16.668120 -5.058274 -31.977579 -23.339696 23.350339 -43.652926 177.729022 -79.197178 0.760519 16.063004 62.293987 63.537956 -46.653278 -14.481372 1.611439 0.088972 -7.497442 37.131380 -175.727817 74.489506 5.802088 -21.053159 -59.629093 -0.935536 -63.538558 20.497780 -2.647358 -3.849979 18.731574 -27.148427 
329.377068 0.000000 543.053356 180.000000 -49.017055 180.000000 -4.266712 82.511947 -0.090072 94.192570 -1.514749 178.098381 145.515695 3.176950 -147.196205 -28.916530 -3.644777 14.244544 71.177884 -13.259952 -8.848711 21.454554 0.003092 0.000000 162.649874 -6.369985 159.132683 -57.335593 3.130344 -16.675840 94.210140 9.383180 -13.726036 21.454556 -0.003104 -0.000018 13.224981 -0.817479 2.476699 16.397807 -1.978112 4.812804 16.080745 -1.948905 4.824638 17.202307 -5.553473 -32.503978 -22.836507 23.682651 -44.196353 -179.712077 -78.793782 -1.834014 18.712557 62.799387 66.265605 -46.393088 -14.164058 1.582389 0.139692 -6.940148 37.687576 -176.685909 74.763044 4.824071 -21.958316 -59.345365 -1.304129 -63.208751 20.491738 -2.633484 -3.862986 18.365385 -27.538718 
